<?xml version="1.0" encoding="utf-8"?>
<!-- Generator: Adobe Illustrator 19.2.1, SVG Export Plug-In . SVG Version: 6.00 Build 0)  -->
<svg version="1.1" id="Layer_1" xmlns="http://www.w3.org/2000/svg" xmlns:xlink="http://www.w3.org/1999/xlink" x="0px" y="0px"
	 viewBox="0 0 256 256" style="enable-background:new 0 0 256 256;" xml:space="preserve">
<style type="text/css">
	.st0{display:none;}
	.st1{display:inline;fill:#FED767;}
	.st2{display:inline;}
	.st3{fill:#F290AA;}
	.st4{fill:#FFE8C3;}
	.st5{fill:#AC4135;}
	.st6{fill:#B94E39;}
	.st7{fill:#EFD8B5;}
	.st8{fill:#FFFFFF;}
	.st9{fill:#446679;}
	.st10{fill:#E1E2E3;}
	.st11{fill:#3E2945;}
	.st12{display:inline;fill:#D13559;}
	.st13{fill:#C84B44;}
	.st14{fill:#FBE2C0;}
	.st15{fill:#28404A;}
	.st16{fill:#ECEDEE;}
	.st17{display:inline;fill:#FBDC71;}
	.st18{fill:#E16B7E;}
	.st19{fill:#E16B7F;}
	.st20{fill:#F4DCB9;}
	.st21{fill:#F0D9B6;}
	.st22{fill:#223540;}
	.st23{fill:#243640;}
	.st24{display:inline;fill:#A3B8AD;}
	.st25{fill:#344E5D;}
	.st26{fill:#3E2A45;}
	.st27{fill:#3E2B46;}
	.st28{display:inline;fill:#FBCFD0;}
	.st29{fill:#D53D3E;}
	.st30{fill:#2E3535;}
	.st31{fill:#3CB29D;}
	.st32{fill:#EAD3B3;}
	.st33{fill:#FEF5E4;}
	.st34{fill:#2D1E31;}
	.st35{display:inline;fill:#565263;}
	.st36{fill:#EE2F7A;}
	.st37{fill:#D82260;}
	.st38{fill:#EDAF3C;}
	.st39{fill:#D9C6A6;}
	.st40{fill:#474A59;}
	.st41{fill:#EBECED;}
	.st42{fill:#BF7F2B;}
	.st43{fill:#BD7E2B;}
	.st44{fill:#60C4B0;}
	.st45{fill:#EB7D80;}
	.st46{fill:#555161;}
	.st47{fill:#2E8366;}
	.st48{fill:#46BC97;}
	.st49{fill:#F6F7F8;}
</style>
<g id="Avatar_08_1_" class="st0">
	<path class="st1" d="M206,256H50c-27.6,0-50-22.4-50-50L0,50C0,22.4,22.4,0,50,0l156,0c27.6,0,50,22.4,50,50v156
		C256,233.6,233.6,256,206,256z"/>
	<g class="st2">
		<g>
			<path class="st3" d="M204.7,219.2c-6.9-18-25.7-11-25.7-11c-10.3-6.4-47.8-7.5-47.8-7.5s-37.4,1.1-47.8,7.5c0,0-18.8-7-25.7,11
				c0,0-3.9,17.9-1.3,36.8h74.7h74.7C208.6,237,204.7,219.2,204.7,219.2z"/>
			<path class="st4" d="M161.1,203.3c-2.6-0.6-13.7-1.7-13.7-1.7c-4.6-6.4-3.8-13.1-3.8-13.1h-12.3h-12.3c0,0,0.6,6.6-4,13
				c0,0-10.4,1-13.5,1.8l-4.1,38.6l18.7,6.7c9.9,3.5,20.8,3.5,30.7,0l18.7-6.7L161.1,203.3z"/>
		</g>
		<g>
			<path class="st4" d="M131.2,195.1c0,0,40.4,0.9,47.3-36s11.7-62.8-12.2-90.8s-87.2-1-91.5,19.2c-4.3,20.1,4.6,69.3,4.6,69.3
				S94.3,196.1,131.2,195.1z"/>
			<g>
				<path class="st5" d="M146.8,163.9c-13.2,1.5-26.5,0.5-32.3-0.1c1,0.9,9.3,7.7,16.7,7.7C138.5,171.6,145.7,165,146.8,163.9z"/>
				<path class="st6" d="M146.8,163.9c0.1-0.1,0.2-0.2,0.2-0.2s-7.6-5.1-11.9-3.6c-4.3,1.5-4.4,0.9-8.9-0.1
					c-4.5-1-11.8,3.7-11.8,3.7s0,0,0.1,0.1C120.5,164.7,133.8,165.6,146.8,163.9z"/>
			</g>
			<path class="st7" d="M135.4,146.4c0,0-3.1,3-4.2,3c-1.1,0-4.2-3-4.2-3c-3-3.2-9.9-3.4-9.9-3.4c5.3,4.2,14.1,8,14.1,8
				s8.7-3.8,14.1-8C145.3,142.9,140.1,142.8,135.4,146.4z"/>
			<g>
				<path class="st8" d="M93,124.6c0,0.3,0,0.6,0,0.8c0,6,4.6,10.9,10.2,10.9c5.6,0,10.2-4.9,10.2-10.9c0-0.3,0-0.6,0-0.8H93z"/>
				<g>
					<circle class="st9" cx="103.2" cy="126.4" r="5.5"/>
					<circle class="st10" cx="106" cy="125.9" r="1.7"/>
				</g>
				<path class="st7" d="M103.2,114.6c-5.4,0-9.8,4.4-10.2,10.1h20.4C113,119,108.6,114.6,103.2,114.6z"/>
			</g>
			<g>
				<path class="st8" d="M148.5,124.8c0,0.3,0,0.6,0,0.8c0,6,4.6,10.9,10.2,10.9c5.6,0,10.2-4.9,10.2-10.9c0-0.3,0-0.6,0-0.8H148.5z
					"/>
				<g>
					<circle class="st9" cx="158.7" cy="126.5" r="5.5"/>
					<circle class="st10" cx="161.5" cy="126" r="1.7"/>
				</g>
				<path class="st7" d="M158.7,114.7c-5.4,0-9.8,4.4-10.2,10.1h20.4C168.5,119.1,164,114.7,158.7,114.7z"/>
			</g>
			<path class="st11" d="M89.5,113.9c0,0,4.8-9.2,13-7.2c8.1,2.1,9.9,5,9.9,5s-3-6.6-10.5-6.8C94.4,104.6,89.8,108.8,89.5,113.9z"/>
			<path class="st11" d="M49.1,179.4c0,0,33.4-20,20.1-49.2c0,0-18.7-42.1-8.5-65.1S84.5,20.3,131.2,21c29.1,1.6,47,15.2,58.6,30.4
				s17.8,51.6,0,90.1c0,0-7.9,9.5-5.8,17.4c2.1,7.9,7.2,14.6,18.6,24.4c0,0-41.7-1.4-33.2-55.3c0,0,5.2-10.7-2.1-16.5l-5.5-5.2
				c0,0-2.7-0.6-8,1.2c-5.3,1.8-8.9,4.8-8.9,4.8s8.4-8.3,15.4-8l-8.1-10.1l0.4,8.4c0,0-0.6,4.9-5-22.7l-1.7,0.1l2.8,24.8
				c0,0-4.3-3.6-6.5-24.5l-1-1.8c0,0-1.7,12.6-7.2,17.4l4.1-11.6c0,0-27.7,18.8-57,27.5c0,0,19.7,18.8,4.3,47.2
				C85.4,159,77.4,179.7,49.1,179.4z"/>
		</g>
	</g>
</g>
<g id="Avatar_07_1_" class="st0">
	<path class="st12" d="M206,256H50c-27.6,0-50-22.4-50-50L0,50C0,22.4,22.4,0,50,0l156,0c27.6,0,50,22.4,50,50v156
		C256,233.6,233.6,256,206,256z"/>
	<g class="st2">
		<g>
			<path class="st4" d="M144.6,202.1v-13.4h-9.7h-0.6h-17.4v13.4c0,0-47.3,3.6-51.6,26.8V256h69h61.9v-27.1
				C191.9,205.7,144.6,202.1,144.6,202.1z"/>
			<path class="st13" d="M172.9,242.9v-34.7c0,0-3-1.2-4.9-1.6v35.7c-13.8,7.7-37.3,7.4-37.3,7.4h0l0,0h0l0,0c0,0-23.5,0.4-37.3-7.4
				v-35.7c-1.2,0.2-4.9,1.6-4.9,1.6v34.7c0,0-5.5,7.4-5.4,13.1h47.6h47.6C178.4,250.3,172.9,242.9,172.9,242.9z"/>
		</g>
		<g>
			<path class="st14" d="M127.2,193.1c0,0,50.8,7.9,58.1-67.1c7.4-75-30-85.1-58.1-83.1S78.1,65.2,75,91.2
				C71.9,117.1,69.1,190.1,127.2,193.1z"/>
			<g>
				<path class="st5" d="M114.6,163.9c0.7,0.6,8.2,7.2,12.9,7.2c7.1,0,13.9-7.5,13.9-7.5l0,0C126.6,165.3,118.5,164.6,114.6,163.9z"
					/>
				<path class="st6" d="M141.4,163.6l-8.3-5.9c-2.3-1.8-3.7-0.6-3.7-0.6s-1.2,1.8-2.2,0.3c-1-1.6-3.5-0.4-3.5-0.4l-9.2,6.9
					c0,0,0,0,0.1,0.1C118.5,164.6,128.5,165.8,141.4,163.6z"/>
			</g>
			<path class="st7" d="M130.2,139.7c0,0-1.7,1.3-3,1.6c-1.4-0.4-3-1.6-3-1.6c-3.9-3-9.4-2.4-9.4-2.4c3.2,3.5,12.4,7,12.4,7
				s9.2-3.5,12.4-7C139.6,137.3,134.1,136.7,130.2,139.7z"/>
			<g>
				<path class="st8" d="M155.2,107c-7.1,0.1-11.2,7.3-12.6,10.4c10.5,7.5,25.3,0.4,25.3,0.4c0-0.2,0-0.6-0.1-1.1
					C166,113.3,161.8,106.9,155.2,107z"/>
				<g>
					<circle class="st15" cx="155.6" cy="112.4" r="6.4"/>
					<circle class="st16" cx="155.8" cy="109.4" r="1.8"/>
				</g>
				<path class="st11" d="M155.2,107c6.6-0.1,10.8,6.4,12.5,9.7c-0.5-3.1-3-11.2-13-11.1c-11.7,0.1-12.2,11.8-12.2,11.8c0,0,0,0,0,0
					C144,114.3,148.1,107,155.2,107z"/>
			</g>
			<g>
				<path class="st8" d="M99.9,106.6c-7.1,0.1-11.2,7.3-12.6,10.4c10.5,7.5,25.3,0.4,25.3,0.4c0-0.2,0-0.6-0.1-1.1
					C110.7,113,106.5,106.6,99.9,106.6z"/>
				<g>
					<circle class="st15" cx="100.3" cy="112.1" r="6.4"/>
					<circle class="st16" cx="100.5" cy="109" r="1.8"/>
				</g>
				<path class="st11" d="M99.9,106.6c6.6-0.1,10.8,6.4,12.5,9.7c-0.5-3.1-3-11.2-13-11.1C87.7,105.3,87.2,117,87.2,117c0,0,0,0,0,0
					C88.7,114,92.8,106.7,99.9,106.6z"/>
			</g>
			<path class="st11" d="M87.2,103.8c0,0,4.2-11.8,13.5-8.3c9.4,3.4,11.8,6.2,11.8,6.2s-10.5-5.4-16.1-4.6S87.2,103.8,87.2,103.8z"
				/>
			<path class="st11" d="M168.3,104c0,0-4.2-11.8-13.5-8.3c-9.4,3.4-11.8,6.2-11.8,6.2s10.5-5.4,16.1-4.6S168.3,104,168.3,104z"/>
			<path class="st11" d="M154.4,177.9c0,0,15.1-15.2,21.7-35.1c2.6-7.7,3.2-15.8,2-23.8l-0.4-2.9c-0.3-1.7-0.6-3.4-1.1-5.1
				c-1.2-4.7-4.1-15.2-7.7-27.4c-3-10.1-7.1-28.7-7.1-28.7l-61.2,29.8c0,0-21,7.8-22,41.3c0,0-1.5,23.7,19.1,49.5
				c0,0-27.5-5.2-32.9-49.5s4.3-103.7,62.4-103.7s73.1,46.9,66.9,103.7C194.1,125.9,190.3,172.5,154.4,177.9z"/>
		</g>
	</g>
</g>
<g id="Avatar_06" class="st0">
	<path class="st17" d="M206,256H50c-27.6,0-50-22.4-50-50L0,50C0,22.4,22.4,0,50,0l156,0c27.6,0,50,22.4,50,50v156
		C256,233.6,233.6,256,206,256z"/>
	<g class="st2">
		<g>
			<path class="st7" d="M118.7,182.4c0,0-3.5,8.6-6,10.8c-2.5,2.2-8.8,15.6,5.5,17.7s28.2,1,34.6-6.7l-0.8-10.5c0,0-7.2-9-7-11.3
				C145.2,180.1,120.2,172.2,118.7,182.4z"/>
			<g>
				<path class="st18" d="M177,256h16.6l-0.7-18C189.6,243.9,184.1,250.3,177,256z"/>
				<path class="st18" d="M75.2,238l-1.1,18h15.9C83.2,250.3,77.9,244,75.2,238z"/>
				<path class="st7" d="M89.3,202.1c-0.7,0.4-1.4,0.8-2.1,1.3c0.8-0.3,1.7-0.5,2.6-0.7C89.6,202.5,89.4,202.3,89.3,202.1z"/>
				<path class="st7" d="M181.9,203.2c-0.8-0.5-1.5-1-2.3-1.5c-0.3,0.3-0.5,0.6-0.8,0.9C179.8,202.9,180.9,203,181.9,203.2z"/>
				<path class="st8" d="M75.9,225.8L75.2,238c2.6,6,7.9,12.3,14.8,18H113C96.3,249.6,81.5,237.1,75.9,225.8z"/>
				<path class="st8" d="M153.6,256H177c7.1-5.7,12.7-12.1,15.9-18l-0.5-12.1C185.8,237.1,171.3,249.7,153.6,256z"/>
				<path class="st18" d="M192.2,220.3l-0.1-2.3c-0.1-0.9-0.2-1.7-0.4-2.5c-0.6,1.1-1.2,2.2-1.9,3.4c-9.6,15.1-32.6,31.9-59.3,31.7
					c-20.9-1.8-42.4-16.2-51.6-30.2c-0.9-1.4-1.7-2.8-2.4-4.1c-0.1,0.7-0.1,1.3-0.1,2l-0.3,4.6l-0.2,2.9
					c5.5,11.3,20.3,23.8,37.1,30.2h18.5h22.1c17.7-6.3,32.1-18.9,38.8-30L192.2,220.3z"/>
				<path class="st8" d="M189.4,210.4c-1.4,2.2-3.2,4.4-5.2,6.7c-12.2,13.3-34.3,25.8-53.8,23.3c-17.9-2.7-35.3-12.2-45.4-22.9
					c-2.2-2.4-4.1-4.8-5.6-7.3c-1.5,1.9-2.6,4-2.9,6.2c0.7,1.4,1.5,2.7,2.4,4.1c9.3,13.9,30.7,28.3,51.6,30.2
					c26.7,0.3,49.6-16.5,59.3-31.7c0.7-1.1,1.4-2.3,1.9-3.4C191.3,213.7,190.5,212,189.4,210.4z"/>
				<path class="st19" d="M185,205.6c-2.7,3.4-6.2,6.8-10.2,9.9c-12.1,9.4-29.1,16.5-44.3,15c-13.5-0.8-27.3-7.1-37.5-15.3
					c-3.7-2.9-6.8-6.1-9.4-9.3c-1.7,1.3-3.1,2.7-4.3,4.2c1.5,2.5,3.3,4.9,5.6,7.3c10.1,10.7,27.5,20.3,45.4,22.9
					c19.5,2.5,41.5-10,53.8-23.3c2-2.2,3.8-4.5,5.2-6.7C188.2,208.6,186.7,207,185,205.6z"/>
				<path class="st8" d="M181.9,203.2c-1-0.2-2.1-0.4-3.2-0.5c-4.3,4.6-10.1,8.8-16.8,12c-9.1,4.4-19.8,7-30.4,6.4
					c-10-0.6-19.5-3.3-27.3-7.3c-5.9-3.1-11-6.9-14.5-11.1c-0.9,0.2-1.8,0.5-2.6,0.7c-1.2,0.8-2.4,1.6-3.5,2.4
					c2.5,3.2,5.7,6.4,9.4,9.3c10.2,8.2,24,14.5,37.5,15.3c15.2,1.5,32.2-5.6,44.3-15c4-3.1,7.5-6.5,10.2-9.9
					C184.1,204.7,183,204,181.9,203.2z"/>
				<path class="st19" d="M172.8,198.5c-1.4,1.1-2.9,2.2-4.4,3.2c-10.2,6.8-23.6,11.3-36.8,10.5c-12.9-0.8-24.9-5-33.6-11.1
					c-1-0.7-1.9-1.3-2.8-2c-2,0.9-4,1.9-5.9,3c0.2,0.2,0.3,0.4,0.5,0.6c3.6,4.2,8.6,8,14.5,11.1c7.8,4,17.3,6.7,27.3,7.3
					c10.6,0.6,21.3-2,30.4-6.4c6.7-3.2,12.5-7.4,16.8-12c0.3-0.3,0.6-0.6,0.8-0.9C177.4,200.5,175.1,199.5,172.8,198.5z"/>
				<path class="st8" d="M163.6,195.4c-3.4,2.4-7.4,4.4-12,5.8c-6.2,2-13.3,2.9-20.8,2.4c-6.1-0.4-11.9-1.6-17-3.5
					c-3.4-1.3-6.6-2.8-9.4-4.7c-2.8,1-6,2.2-9.3,3.7c0.9,0.7,1.8,1.4,2.8,2c8.7,6.1,20.7,10.3,33.6,11.1
					c13.2,0.8,26.6-3.8,36.8-10.5c1.5-1,3-2.1,4.4-3.2C169.7,197.2,166.5,196.2,163.6,195.4z"/>
				<path class="st19" d="M152,192.9c-2.1,4.6-6.6,6.9-10.8,8.1c-5,1.4-9.7,1.2-9.7,1.2s-5.5,0.3-10.7-2.1c-3-1.4-6-3.6-7.7-7.3
					c0,0-3.7,0.9-8.7,2.6c2.8,1.8,6,3.4,9.4,4.7c5.1,1.9,10.9,3.1,17,3.5c7.5,0.4,14.6-0.5,20.8-2.4c4.5-1.4,8.6-3.4,12-5.8
					C157.1,193.6,152,192.9,152,192.9z"/>
			</g>
		</g>
		<g>
			<g>
				<path class="st4" d="M78.5,138.7c0,0-15.1-3.1-11.6-22.6c0,0,4-9.5,12.1-3.4L78.5,138.7z"/>
				<path class="st20" d="M71.3,127.1c0,0-2.5-10.1,4.8-10.6l1.7,0.9C77.8,117.5,71.5,122.2,71.3,127.1z"/>
			</g>
			<g>
				<path class="st4" d="M185.1,141.2c0,0,12.7-12,9.2-25.5c0,0-4-8.5-12.5-3.7L185.1,141.2z"/>
				<path class="st20" d="M190.5,126.5c0,0,2.5-10.1-4.8-10.6l-1.7,0.9C184,116.8,190.4,121.6,190.5,126.5z"/>
			</g>
			<path class="st4" d="M127.9,184.3c0,0,51.3,5.1,57.5-43c0,0-4.3-56.2-9.8-59c-5.5-2.8-68.8-17-80-8.1s-19.8,33.4-17.9,64.3
				C77.6,138.6,80.8,180.9,127.9,184.3z"/>
			<path class="st21" d="M111.5,153.2c0,0,20.3,9.8,40.5,8.6c0,0-6.7,4.7-22.7,1.7C114.9,160.2,111.5,153.2,111.5,153.2z"/>
			<path class="st21" d="M135,144c0,0-1.5,1-2.7,1c-1.1,0-2.7-1-2.7-1c-5.7-3.4-11.4-3.6-11.4-3.6c1.1,1.4,14.1,8.1,14.1,8.1
				s13-6.7,14.1-8.1C146.4,140.4,140.7,140.6,135,144z"/>
			<g>
				<g>
					<ellipse class="st22" cx="105" cy="121.2" rx="4.8" ry="5.8"/>
					<circle class="st8" cx="105.3" cy="118.5" r="1.6"/>
				</g>
				<path class="st23" d="M91.3,117.4c0,0,9.9-4.6,16.6-2C107.9,115.4,104.7,116.5,91.3,117.4z"/>
			</g>
			<g>
				<g>
					<ellipse class="st22" cx="155.8" cy="121.1" rx="4.8" ry="5.8"/>
					<circle class="st8" cx="155.5" cy="118.4" r="1.6"/>
				</g>
				<path class="st23" d="M169.5,117.3c0,0-9.9-4.6-16.6-2C152.9,115.3,156.1,116.3,169.5,117.3z"/>
			</g>
			<path class="st11" d="M127.9,24c0,0,33.9-5.9,50.6,28.9l9.8,21.9c0,0,10.6,3.1,14.3,5.4c0,0,36-0.3,39.1,52.9c0,0,2.4,16-12.9,37
				s-32.7,32-59,32.3c0,0,25.6-7.1,29.9-32.3l-31.5,17.2c0,0-2.2-19.4,18-35.9s22.6-40.7,13.8-56c0,0-3.1,5.2-9.3,2.9l-6.9,35.8
				c0,0-1.9-34.4-30.1-32.2c0,0-25.8,6.9-36.5,0c-10.7-6.8-24.5-21.5-24.5-21.5s-3,12.1-4.6,16.3s-8.5,23.1-6.6,38.8
				c0,0-6.1-3.2-7.7-18.4s-5.3-13.5-7.1-12.6l-9.5-0.9c0,0-6.3,7.5-5.9,15.3c0.3,7.7-0.2,15.1,9.6,28.7s29.6,30.8,27.7,47.6
				l-31.7-17.5c0,0,2.6,23.4,29.6,32.2c0,0-49.2,3.8-70.4-54.5c0,0-12.4-43.3,24.3-62.4c0,0,13.7-6.7,21.7-7.2l-1.5-2.8l4.9,1.5
				c0,0,3.4-4.1,4.6-12.6C71.4,63.3,80.3,22.2,127.9,24z"/>
			<g>
				
					<ellipse transform="matrix(0.9787 -0.2054 0.2054 0.9787 -18.1169 14.4486)" class="st19" cx="60.5" cy="94.5" rx="6.3" ry="13.4"/>
				<ellipse class="st19" cx="196.2" cy="85.7" rx="6.3" ry="13.4"/>
			</g>
		</g>
	</g>
</g>
<g id="Avatar_05" class="st0">
	<path class="st24" d="M206,256H50c-27.6,0-50-22.4-50-50L0,50C0,22.4,22.4,0,50,0l156,0c27.6,0,50,22.4,50,50v156
		C256,233.6,233.6,256,206,256z"/>
	<g class="st2">
		<g>
			<path class="st20" d="M148.8,196.7c0,0,0.8,12.6-2.6,23.2c-3.4,10.6-41.7,29.9-42.6-24.3L148.8,196.7z"/>
			<g>
				<path class="st25" d="M148.8,206.6c-8,24.4-42.6,19.6-44.8-0.7c-11.9,1.6-49.6,0.5-50.9,17.2L50.5,256H128h77.5l-2.4-32.9
					C201.8,206.3,160.7,208.2,148.8,206.6z"/>
			</g>
		</g>
		<g>
			<path class="st26" d="M71.7,128c0,0-11.9,17.9,5.2,58.8c0,0,13.2,36.5-14.1,47.6c0,0,41.8,4.6,40.8-35.4
				C102.5,158.9,71.7,128,71.7,128z"/>
			<path class="st14" d="M127.9,203.8c0,0-61.2,2.9-56.5-78.1c0,0-3.8-53.2,28.1-57.8s48.9-19.6,57.7-7.4
				c8.8,12.2,21.3,29.9,16.5,60.2C173.7,120.7,188,203.8,127.9,203.8z"/>
			<g>
				<path class="st6" d="M146.2,171C146.2,171,146.2,171,146.2,171c-3.1-2.6-11.2-5.4-14.9-3.6c-3.7,1.8-7.2-0.5-7.2-0.5
					c-5.3-1.3-15,4.1-15,4.1s0,0,0.1,0.1C114,172.1,124.7,173,146.2,171z"/>
				<path class="st5" d="M109.1,171.1c0.7,1,7.8,10.2,18.5,9.3c12.8-1.5,18.2-8.9,18.6-9.4C124.7,173,114,172.1,109.1,171.1z"/>
			</g>
			<path class="st21" d="M133,138.7c0,0-2.9,2.3-5.1,2.5c-2.2-0.2-5.1-2.5-5.1-2.5c-3.7-2.1-8.3-2.2-8.3-2.2
				c1.3,1,13.5,7.6,13.5,7.6s12.2-6.6,13.5-7.6C141.3,136.6,136.7,136.6,133,138.7z"/>
			<g>
				<g>
					<g>
						<g>
							<circle class="st11" cx="104.1" cy="113.9" r="7.6"/>
							<circle class="st8" cx="100.7" cy="111.2" r="2.1"/>
						</g>
						<path class="st27" d="M114.8,109.7c0,0-9.8-9.9-21-3.5c0,0,4,0.2,4.8,0.9c0,0-4.5,1.7-5.2,3.4
							C93.5,110.5,104.6,106.4,114.8,109.7z"/>
					</g>
					<g>
						<g>
							<circle class="st11" cx="148.6" cy="112.7" r="7.6"/>
							<circle class="st8" cx="152" cy="110" r="2.1"/>
						</g>
						<path class="st27" d="M137.9,108.6c0,0,9.8-9.9,21-3.5c0,0-4,0.2-4.8,0.9c0,0,4.5,1.7,5.2,3.4
							C159.2,109.3,148.1,105.3,137.9,108.6z"/>
					</g>
				</g>
				<g>
					<path class="st11" d="M140,98.8c0,0,5.8-8.4,13.3-8.5c7.5-0.1,8.7,9.5,8.7,9.5S157.1,84.1,140,98.8z"/>
					<path class="st11" d="M112.1,99.6c0,0-5.8-8.4-13.3-8.5c-7.5-0.1-6.1,5.2-6.1,5.2S95,84.9,112.1,99.6z"/>
				</g>
			</g>
			<g>
				<g>
					<path class="st4" d="M171.8,102.1c0,0,9.6-11.6,13.5-3.3s-0.7,21-6.8,22.2c-6.1,1.2-7.8-4.8-7.8-4.8L171.8,102.1z"/>
					<path class="st20" d="M181.4,109.7c0,0,0.7-8.3-4.4-7.5l-3.3,2.1c0,0,3.3-5.3,7.7-3.1C185.8,103.3,181.4,109.7,181.4,109.7z"/>
				</g>
				<g>
					<path class="st4" d="M77.7,102.1c0,0-9.6-11.6-13.5-3.3s0.7,21,6.8,22.2c6.1,1.2,7.8-4.8,7.8-4.8L77.7,102.1z"/>
					<path class="st20" d="M68.1,109.6c0,0-0.7-8.3,4.4-7.5l3.3,2.1c0,0-3.3-5.3-7.7-3.1S68.1,109.6,68.1,109.6z"/>
				</g>
			</g>
			<path class="st11" d="M127.9,26.9c0,0,45.4-6.5,48.3,39.7c0,0,1.9,30.9-0.9,41.2c0,0-20.6-29.8-22.9-42c0,0-34.2,35.1-77.2,36
				l-6,4.8c0,0-1.5-46.1,14.1-64.7S127.9,26.9,127.9,26.9z"/>
		</g>
	</g>
</g>
<g id="Avatar_04" class="st0">
	<path class="st28" d="M206,256H50c-27.6,0-50-22.4-50-50L0,50C0,22.4,22.4,0,50,0l156,0c27.6,0,50,22.4,50,50v156
		C256,233.6,233.6,256,206,256z"/>
	<g class="st2">
		<g>
			<path class="st29" d="M199.9,219.2c-6.9-18-25.7-11-25.7-11c-10.3-6.4-47.8-7.5-47.8-7.5s-37.4,1.1-47.8,7.5c0,0-18.8-7-25.7,11
				c0,0-3.9,17.9-1.3,36.8h74.7h74.7C203.8,237,199.9,219.2,199.9,219.2z"/>
			<path class="st4" d="M156.3,203.3c-2.6-0.6-13.7-1.7-13.7-1.7c-4.6-6.4-3.8-13.1-3.8-13.1h-12.3h-12.3c0,0,0.6,6.6-4,13
				c0,0-10.4,1-13.5,1.8l-4.1,38.6l18.7,6.7c9.9,3.5,20.8,3.5,30.7,0l18.7-6.7L156.3,203.3z"/>
		</g>
		<g>
			<path class="st11" d="M174.4,52.1c-10.2-15.9-21.8-22.9-47.9-22.9s-37.7,6.9-47.9,22.9s-37,118.4-37,118.4
				c27.8,18.8,84.9,22.1,84.9,22.1s55.2-3.3,83-22.1C209.5,170.5,184.6,68,174.4,52.1z"/>
			<g>
				<g>
					<path class="st4" d="M79.7,110.9c0,0-8.7-10.1-13.3-1.9c-3.1,8.9,6.1,28.7,13.3,18C79.7,127,82.7,116.5,79.7,110.9z"/>
					<path class="st7" d="M70.2,117.9c0,0-1.5-7.5,4.6-7c0,0,2.7,1.2,2.9,1.9c0,0-3.2-1.4-5.2,0.1C72.5,112.9,69.8,115.7,70.2,117.9
						z"/>
				</g>
				<g>
					<path class="st4" d="M171.2,111.7c0,0,8.7-10.1,13.3-1.9c3.1,8.9-6.1,28.7-13.3,18C171.2,127.7,168.2,117.3,171.2,111.7z"/>
					<path class="st7" d="M180.7,118.7c0,0,1.5-7.5-4.6-7c0,0-2.7,1.2-2.9,1.9c0,0,3.2-1.4,5.2,0.1
						C178.4,113.7,181.1,116.5,180.7,118.7z"/>
				</g>
			</g>
			<path class="st4" d="M126.5,90.1h-20.4l-2.6-10.5L100,90.1H79.7v52c0,7.5,1.3,14.9,3.9,21.9c12.4,33.1,42.9,28.6,42.9,28.6
				s30.5,4.5,42.9-28.6c2.6-7,3.9-14.4,3.9-21.9v-52H126.5z"/>
			<g>
				<path class="st6" d="M141.1,163.8c-1.2-0.9-6.5-4.5-11.1-3.2c-5.1,1.4-3,0.8-7.5-0.1c-4.2-0.8-10.1,2.8-10.9,3.3
					C115.8,164.5,125.9,165.6,141.1,163.8z"/>
				<path class="st5" d="M111.7,163.8C111.6,163.8,111.6,163.8,111.7,163.8c-0.1,0.1,6.8,7.6,14.8,7.6c8,0,14.9-7.5,14.9-7.5
					s-0.1-0.1-0.2-0.2C125.9,165.6,115.8,164.5,111.7,163.8z"/>
			</g>
			<path class="st7" d="M134.2,132.5c-2.3,0.7-4.4,1.2-5.8,1.6c-1.3,0.3-2.6,0.3-3.8,0c-1.4-0.3-3.5-0.9-5.8-1.6
				c-4.2-1.3-3.2,0-3.2,0c5,3.4,10.9,5.1,10.9,5.1s5.9-1.7,10.9-5.1C137.4,132.5,138.4,131.2,134.2,132.5z"/>
			<g>
				<path class="st8" d="M175.6,105.3h-6.1c0,0-4.7-5.8-16.9-5.8c-12.2,0-19.6,5.5-21.3,11.4h-3.8h-3h-3.8
					c-1.7-5.9-9.2-11.4-21.3-11.4c-12.2,0-16.9,5.8-16.9,5.8h-6.1l0.8,9.4l1.8,0.6c-0.5,6.2,0.7,9.2,0.7,9.2
					c2.5,13.2,19.7,9.9,19.7,9.9c23.3,0,23.2-15.5,23.2-15.5h1.8h3h1.8c0,0-0.1,15.5,23.2,15.5c0,0,17.2,3.3,19.7-9.9
					c0,0,1.3-3,0.7-9.2l1.8-0.6L175.6,105.3z M99.2,130.6c-10,0-17.5,1-16.8-13.5c0.7-14.5,9.1-13.4,16.8-14.3
					c0,0,16.9-0.3,19.2,12.5C120.8,128.1,109.2,130.6,99.2,130.6z M152.9,130.6c-10,0-21.6-2.5-19.2-15.3
					c2.4-12.8,19.2-12.5,19.2-12.5c7.7,0.9,16.1-0.2,16.8,14.3C170.5,131.6,162.9,130.6,152.9,130.6z"/>
				<g>
					<path class="st30" d="M99.2,102.9c-7.7,0.9-16.1-0.2-16.8,14.3c-0.7,14.5,6.8,13.5,16.8,13.5c10,0,21.6-2.5,19.2-15.3
						C116.1,102.6,99.2,102.9,99.2,102.9z"/>
					<path class="st30" d="M152.9,102.9c0,0-16.9-0.3-19.2,12.5c-2.4,12.8,9.3,15.3,19.2,15.3c10,0,17.5,1,16.8-13.5
						C169,102.7,160.7,103.8,152.9,102.9z"/>
				</g>
			</g>
		</g>
	</g>
</g>
<g id="Avatar_03" class="st0">
	<path class="st1" d="M206,256H50c-27.6,0-50-22.4-50-50L0,50C0,22.4,22.4,0,50,0l156,0c27.6,0,50,22.4,50,50v156
		C256,233.6,233.6,256,206,256z"/>
	<g class="st2">
		<g>
			<path class="st31" d="M201.4,219.2c-6.9-18-25.7-11-25.7-11c-10.3-6.4-47.8-7.5-47.8-7.5s-37.4,1.1-47.8,7.5c0,0-18.8-7-25.7,11
				c0,0-3.9,17.9-1.3,36.8H128h74.7C205.4,237,201.4,219.2,201.4,219.2z"/>
			<path class="st4" d="M157.9,203.3c-2.6-0.6-13.8-1.6-13.8-1.6c-4.6-6.4-3.8-13.3-3.8-13.3H128h-12.3c0,0,0.8,6.9-3.8,13.3
				c0,0-10.7,0.8-13.8,1.6L94,241.8l18.7,6.7c9.9,3.5,20.8,3.5,30.7,0l18.7-6.7L157.9,203.3z"/>
		</g>
		<g>
			<g>
				<g>
					<path class="st4" d="M78.1,127.4c0,0-9.8,3-13.8-9.8s4.9-17.7,12.1-15.5L78.1,127.4z"/>
					<path class="st32" d="M68.3,116.3c0,0,0-7.2,5.7-7c0,0,2.6-3.5-1.3-2.6C68.7,107.6,66.5,108.5,68.3,116.3z"/>
				</g>
				<g>
					<path class="st4" d="M175.8,127.7c0,0,9.8,3,13.8-9.8c4-12.8-4.9-17.7-12.1-15.5L175.8,127.7z"/>
					<path class="st32" d="M185.6,116.7c0,0,0-7.2-5.7-7c0,0-2.6-3.5,1.3-2.6C185.1,108,187.4,108.8,185.6,116.7z"/>
				</g>
			</g>
			<path class="st4" d="M128,195.1c0,0,52.3,5.3,53.5-69c1.2-74.3-11.6-89.8-44.9-91.3c-33.3-1.5-56.9,11.6-60.8,51.1l1.5,42.1
				C77.4,128,66.8,190.2,128,195.1z"/>
			<path class="st5" d="M129.1,161.3c-1.3,1.1-3.5,0-3.5,0c-6.1-3.7-14.3,2.4-14.3,2.4s0,0,0.1,0.1c0.9,1,8,7.9,16,7.8
				c8.3-0.2,15.5-7.2,16.1-7.8c0,0,0.1-0.1,0.1-0.1C133.7,157.6,129.1,161.3,129.1,161.3z"/>
			<g>
				<path class="st6" d="M143.6,163.7C143.6,163.7,143.7,163.7,143.6,163.7c-9.9-6.1-14.5-2.4-14.5-2.4c-1.3,1.1-3.5,0-3.5,0
					c-6.1-3.7-14.3,2.4-14.3,2.4s0,0,0.1,0.1C117.5,164.4,132,165.5,143.6,163.7z"/>
				<path class="st5" d="M111.5,163.8c0.9,1,8,7.9,16,7.8c8.3-0.2,15.5-7.2,16.1-7.8C132,165.5,117.5,164.4,111.5,163.8z"/>
			</g>
			<path class="st7" d="M129.2,143.1c0,0-0.3,0.4-1.2,0.3c-0.8,0.1-1.2-0.3-1.2-0.3c-4.5-2.7-13-3.9-13-3.9
				c3.4,3.4,14.1,7.9,14.1,7.9s10.8-4.5,14.1-7.9C142.1,139.1,133.7,140.4,129.2,143.1z"/>
			<g>
				<g>
					<path class="st33" d="M100.9,111.5c-5.8,0.5-9,4.8-10.2,7.1c0,0.1,0,0.1,0,0.2c0,5.4,4.7,9.8,10.5,9.8c5.8,0,10.5-4.4,10.5-9.8
						c0-0.4,0-0.7-0.1-1.1C110,115.1,106.4,111,100.9,111.5z"/>
					<circle class="st34" cx="100.9" cy="116.4" r="5"/>
					<path class="st34" d="M100.9,111.5c5.6-0.5,9.1,3.7,10.7,6.2c-0.6-4.9-5-8.7-10.4-8.7c-5.7,0-10.4,4.3-10.5,9.6
						C91.9,116.3,95,112,100.9,111.5z"/>
				</g>
				<g>
					<path class="st33" d="M152.1,111.3c-5.8,0.5-9,4.8-10.2,7.1c0,0.1,0,0.1,0,0.2c0,5.4,4.7,9.8,10.5,9.8c5.8,0,10.5-4.4,10.5-9.8
						c0-0.4,0-0.7-0.1-1.1C161.2,114.9,157.6,110.8,152.1,111.3z"/>
					<circle class="st34" cx="152.1" cy="116.3" r="5"/>
					<path class="st34" d="M152.1,111.3c5.6-0.5,9.1,3.7,10.7,6.2c-0.6-4.9-5-8.7-10.4-8.7c-5.7,0-10.4,4.3-10.5,9.6
						C143.1,116.1,146.2,111.8,152.1,111.3z"/>
				</g>
			</g>
			<path class="st11" d="M85.8,106.1c0,0,3.6-10,11.6-9.3c8,0.6,13.4,7.2,13.4,7.2s-11.8-6.8-16-5.2S85.8,106.1,85.8,106.1z"/>
			<path class="st11" d="M168.7,166.4c0,0,65.6-141.7-40.7-158.7c0,0-22.4-3.1-32.8,21.3c0,0-24.8,4.6-29.4,26.3s-2.3,33.7,3.5,54.2
				c0,0,8.3,19,10.7,35.8c0,0,4.5-6.5,1.4-22c0,0-7.9-24.3,5.7-35.1s17.2-15.5,17.2-15.5s8.6,13.4,25.8,22s30.3,24.8,32.2,38
				C164.1,146,168.7,166.4,168.7,166.4z"/>
		</g>
	</g>
</g>
<g id="Avatar_02" class="st0">
	<path class="st35" d="M206,256H50c-27.6,0-50-22.4-50-50L0,50C0,22.4,22.4,0,50,0l156,0c27.6,0,50,22.4,50,50v156
		C256,233.6,233.6,256,206,256z"/>
	<g class="st2">
		<g>
			<path class="st7" d="M145.5,192.7H128h-17.5c0,0-17.7,47.7-23.7,53l41.3,3.1l41.3-3.1C163.2,240.4,145.5,192.7,145.5,192.7z"/>
			<g>
				<path class="st36" d="M149.3,202.7c17.2,44.7-62.6,43.1-42.7,0c-11.9,1.6-52,3.7-53.3,20.4L50.7,256h77.5h77.5l-2.4-32.9
					C202,206.4,161.2,204.3,149.3,202.7z"/>
			</g>
			<g>
				<path class="st37" d="M102.2,203.2c-24.2,52.1,76.1,52.9,52,0.2l-4.9-0.7c16,44.2-60.4,42.7-42.7,0L102.2,203.2z"/>
			</g>
		</g>
		<g>
			<path class="st38" d="M180.3,100.2l-0.2-1.7c-26-17.8-26.8-38.1-26.8-38.1c-4.7,21.7-65.5,31-82.9,38.2
				c-2.2,14.6-7.3,47.1-13.3,78c0,0,29,15.5,70.9,16.5c0,0,46.1-2.3,67.6-12.3c0,0-7.2-51.7-9.9-80.3L180.3,100.2z"/>
			<g>
				<g>
					<path class="st4" d="M77,98.6c0,0-10.4-3.3-10.1,8.6c0.2,11.9,7.5,15.7,9.3,15.7L77,98.6z"/>
					<path class="st20" d="M72.2,112.2c0,0,0.5-11,6-6.8c0,0-4.3-6.9-7.1-0.1C71.1,105.3,69.9,109.7,72.2,112.2z"/>
				</g>
				<g>
					<path class="st4" d="M179.9,99c0,0,11.2-3.5,10.9,8.4s-8.8,15.7-10.7,15.7L179.9,99z"/>
					<path class="st20" d="M185.5,112.5c0,0-0.5-11-6-6.8c0,0,4.3-6.9,7.1-0.1C186.6,105.6,187.8,109.9,185.5,112.5z"/>
				</g>
			</g>
			<path class="st14" d="M128,198.7c0,0,56.4,6.4,52.2-75.7c0,0,2.8-61.3-15.2-68.8s-76.9-6.5-81.8,10.1s-8,43.6-7,58.6
				S71.7,192.4,128,198.7z"/>
			<g>
				<path class="st6" d="M145.5,166.4c0.7-0.7,1-1.1,1-1.1c-8.6-5.8-15.1-3.7-15.1-3.7s-3.6,2.2-7.4,0c-3.8-2.2-14.8,3.7-14.8,3.7
					s0.2,0.2,0.6,0.6C116.4,167,132.3,168.9,145.5,166.4z"/>
				<path class="st5" d="M109.9,166c2.1,2.2,9.8,9.5,18.1,9.5c7.7,0,16-7.5,18.6-10.1C133.3,167.8,116.4,167,109.9,166z"/>
			</g>
			<path class="st39" d="M128.4,143.8c-0.3,0.2-0.6,0.2-0.9,0c-0.2-0.1-0.5-0.3-0.6-0.3c-2.5-0.2-12.1-0.8-16.3-1.8
				c0,0,4.5,6,17.3,6.5c12.8-0.4,17.3-6.5,17.3-6.5c-4.1,1.1-13.8,1.6-16.3,1.8C128.9,143.5,128.7,143.6,128.4,143.8z"/>
			<g>
				<g>
					<g>
						<circle class="st40" cx="150.8" cy="110.8" r="8.7"/>
						<circle class="st41" cx="147.9" cy="112" r="1.9"/>
					</g>
					<path class="st39" d="M138.6,107.1c0,0,3.6-6.7,11.9-6.5c8.3,0.2,10.3,5.7,10.3,5.7S149.3,101.1,138.6,107.1z"/>
				</g>
				<g>
					<g>
						<circle class="st40" cx="107.4" cy="110.8" r="8.7"/>
						<circle class="st41" cx="104.6" cy="112" r="1.9"/>
					</g>
					<path class="st39" d="M95.3,107.2c0,0,3.6-6.7,11.9-6.5s10.3,5.7,10.3,5.7S105.9,101.2,95.3,107.2z"/>
				</g>
			</g>
			<g>
				<path class="st42" d="M139.7,99.2c0,0,10-11.5,26.7-4.8C166.3,94.4,150.2,93,139.7,99.2z"/>
				<path class="st43" d="M92.5,94.6c0,0,14.8-6.7,26.7,4.6C119.2,99.2,105.4,92.3,92.5,94.6z"/>
			</g>
			<path class="st38" d="M153.3,60.4c0,0,0.9,20.3,26.8,38.1l0.2,1.7l5.4,0.3c-0.7-7.9-1.1-14-0.9-16.8c1-12.9-3.5-63.7-56.8-61.4
				S68.7,47.5,71.5,90.6c0,0-0.4,2.9-1.2,7.9C87.6,95.3,148.5,82.1,153.3,60.4z"/>
		</g>
	</g>
</g>
<g id="Avatar_01">
	<path class="st44" d="M206,256H50c-27.6,0-50-22.4-50-50L0,50C0,22.4,22.4,0,50,0l156,0c27.6,0,50,22.4,50,50v156
		C256,233.6,233.6,256,206,256z"/>
	<g>
		<g>
			<path class="st7" d="M139.8,185.8h-12.4H115c0,0-7.4,21.9-13.4,27.2h25.8h25.8C147.1,207.7,139.8,185.8,139.8,185.8z"/>
			<path class="st45" d="M204.3,256c-0.2-12.3-2.1-22.5-3.8-29.1c-1.7-7-6.1-13.1-12.3-16.9c-17.6-10.8-42.5-9.1-42.5-9.1
				s-3,8.8-17.4,9.2c-15-0.1-19.2-9.3-19.2-9.3s-24.2-1.6-41.5,9.2c-6.1,3.8-10.4,9.8-12.1,16.8c-1.6,6.6-3.6,16.9-3.8,29.2H128v0
				H204.3z"/>
			<g>
				<path class="st46" d="M184.5,229.1c-0.1-1.3-1.3-1.8-2.5-2c-1.6-0.3-2.8-1.5-3.2-3c-1.4-6.7-3.5-19.6-3.5-19.6
					c-3.5-1.5-11.4-2.5-11.4-2.5l0.2,23.3c0,1-0.8,1.7-1.7,1.7H128H93.5c-1,0-1.7-0.8-1.7-3.6l0.2-21.5c0,0-8.3,1.3-11.4,2.5
					c0,0-2.1,13.1-3.6,19.8c-0.3,1.6-1.6,2.8-3.2,3c-1.2,0.2-2.4,0.7-2.5,2l-0.1,1.1L68.9,256h59h59l-2.5-25.8L184.5,229.1z"/>
				<g>
					<circle class="st47" cx="85.1" cy="225.4" r="3.9"/>
					<circle class="st48" cx="83.9" cy="225.4" r="0.8"/>
					<circle class="st48" cx="86.4" cy="225.4" r="0.8"/>
				</g>
				<g>
					<circle class="st47" cx="171.2" cy="225.4" r="3.9"/>
					<circle class="st48" cx="169.9" cy="225.4" r="0.8"/>
					<circle class="st48" cx="172.4" cy="225.4" r="0.8"/>
				</g>
			</g>
		</g>
		<g>
			<path class="st14" d="M172.9,98.1c-7.6-20.1-16.6-49.2-44.9-47c-28.2-2.2-40.7,29.2-48.2,49.4c-7.6,20.1,3.4,61.6,3.4,61.6
				c9.8,28.2,44.9,28.6,44.9,28.6s35.1-0.3,44.9-28.6C172.9,162.1,180.4,118.3,172.9,98.1z"/>
			<g>
				<path class="st5" d="M111.5,158.5c1,1.1,7.1,7.7,16,8c9.5,0.3,15.4-7.3,15.8-7.8C135.2,159.5,117.9,158.8,111.5,158.5z"/>
				<path class="st6" d="M143.3,158.6C143.3,158.6,143.4,158.6,143.3,158.6c0,0-6-2.6-7.6-3.7c-3.3-0.7-6.5,0.7-7.4,1.3
					c0,0-1.2,0.6-2.1-0.1c0,0-4.6-2.5-9.2-0.2c-4.7,2.3-5.7,2.4-5.7,2.4s0.1,0.1,0.1,0.2C117.9,158.8,126.3,161.2,143.3,158.6z"/>
			</g>
			<path class="st7" d="M131,141.3c0,0-1.1,1-3,1.2c-1.9-0.2-3-1.2-3-1.2c-3-2.1-10.9-3-10.9-3c1.8,2.9,13.9,7.5,13.9,7.5
				s12.1-4.6,13.9-7.5C141.9,138.3,133.9,139.2,131,141.3z"/>
			<g>
				<g>
					<path class="st49" d="M86.3,112.3C86.3,112.4,86.3,112.4,86.3,112.3c-0.1,0.1-2.7,13.6,14,15.7c0,0,14.1,0.8,15.1-10.7
						C104.1,110.4,89.8,111.9,86.3,112.3z"/>
					<circle class="st26" cx="100.3" cy="117" r="6.8"/>
					<path class="st26" d="M115.4,117.3c0-0.2,0-0.4,0-0.6c0,0-7.2-10.3-19.4-8.2c0,0-5.8,0-9.7,3.7
						C89.8,111.9,104.1,110.4,115.4,117.3z"/>
				</g>
				<g>
					<path class="st49" d="M167.5,112.3C167.6,112.4,167.6,112.4,167.5,112.3c0.1,0.1,2.7,13.6-14,15.7c0,0-14.1,0.8-15.1-10.7
						C149.7,110.4,164.1,111.9,167.5,112.3z"/>
					<circle class="st26" cx="153.5" cy="117" r="6.8"/>
					<path class="st26" d="M138.4,117.3c0-0.2,0-0.4,0-0.6c0,0,7.2-10.3,19.4-8.2c0,0,5.8,0,9.7,3.7
						C164.1,111.9,149.7,110.4,138.4,117.3z"/>
				</g>
			</g>
			<g>
				<path class="st26" d="M85.9,108.7c0,0,2.1-8.9,10.3-9.2s13,6.1,13,6.1s-7.7-4.2-12.9-4.4C91.1,101.1,85.9,108.7,85.9,108.7z"/>
				<path class="st26" d="M141.4,106.8c0,0,8.2-6,11.7-6.5l1.3,0.4C154.4,100.7,145.4,105.4,141.4,106.8z"/>
			</g>
			<path class="st13" d="M197.9,146.3c0,0-9.1-7-5.8-23.3c3.4-16.3,7.7-35.3-1.9-59.8c-9.5-24.5-41.6-45.4-62.2-46.2
				c0,0-54.6-2.3-68.8,54.4c0,0-7,18.2,2.1,51.6c0,0,3.9,12.8-6.5,23.3l7-3.4c0,0,1.4,3.6-7,9.4c0,0,6.7,5.8,16.9,1.3l-7.6,6.1
				c0,0,5.8,7.4,16.1,3.9c0,0,7-2.8,3.6-8.6c-3.4-5.8-10.6-36.5-0.9-54.6c0,0,9.2-12,12.3-26.1c0,0,16.9,16.4,23.9,16.5
				c0,0,2.1,0.8-3.9-7.6c0,0-15.1-22.6-9.2-18.6c0,0,8.2,12.6,22,21c0,0,25.5,20,41.3,23.7L154.1,82l16.5,19.6c0,0,6,8.4,3.3,21.4
				c0,0-0.3,29.9-2.2,41.4c0,0,7.4,8.8,13.9,3.6c0,0,6.5-4,4.6-5.2c0,0-9.1-2.2-8.1-9.6c0,0,6.9,7.2,15.1,2.2c0,0-0.4-2.7-5.3-9.9
				C191.9,145.5,195.8,145.6,197.9,146.3z"/>
		</g>
	</g>
</g>
</svg>
