<?xml version="1.0" encoding="utf-8"?>
<!-- Generator: Adobe Illustrator 19.2.1, SVG Export Plug-In . SVG Version: 6.00 Build 0)  -->
<svg version="1.1" id="Layer_1" xmlns="http://www.w3.org/2000/svg" xmlns:xlink="http://www.w3.org/1999/xlink" x="0px" y="0px"
	 viewBox="0 0 256 256" style="enable-background:new 0 0 256 256;" xml:space="preserve">
<style type="text/css">
	.st0{display:none;}
	.st1{display:inline;fill:#8BAECB;}
	.st2{display:inline;}
	.st3{fill:#E9D2B2;}
	.st4{fill:#C8787F;}
	.st5{fill:#FFE8C3;}
	.st6{fill:#3E2945;}
	.st7{fill:#E8DCC0;}
	.st8{fill:#FFFFFF;}
	.st9{fill:#60808F;}
	.st10{fill:#E7ECEC;}
	.st11{fill:#F6DEBB;}
	.st12{fill:#D9C6A6;}
	.st13{display:inline;fill:#56839E;}
	.st14{fill:#EFD8B5;}
	.st15{fill:#AFAFAE;}
	.st16{fill:#F4DCB9;}
	.st17{fill:#446679;}
	.st18{fill:#ECEDEE;}
	.st19{display:inline;fill:#FED666;}
	.st20{fill:#E77449;}
	.st21{fill:#FBE2C0;}
	.st22{fill:#CEBB9E;}
	.st23{fill:#3E2B46;}
	.st24{fill:#F0D9B6;}
	.st25{fill:#E6E973;}
	.st26{fill:#4D4E4E;}
	.st27{fill:#456476;}
	.st28{fill:#E2E3E4;}
	.st29{display:inline;fill:#72529E;}
	.st30{fill:#EE2C77;}
	.st31{fill:#D82260;}
	.st32{fill:#EDAF3C;}
	.st33{fill:#C8B092;}
	.st34{fill:#FEF5E4;}
	.st35{display:inline;fill:#CDC3DF;}
	.st36{fill:#575554;}
	.st37{fill:#444342;}
	.st38{display:inline;fill:#A0BDB0;}
	.st39{fill:#FDCE66;}
	.st40{display:inline;fill:#E4E765;}
	.st41{fill:#F5FBFE;}
	.st42{fill:#4AC2C3;}
	.st43{fill:#EDEDED;}
	.st44{fill:none;}
</style>
<g id="Avatar_08" class="st0">
	<path class="st1" d="M206,256H50c-27.6,0-50-22.4-50-50L0,50C0,22.4,22.4,0,50,0l156,0c27.6,0,50,22.4,50,50v156
		C256,233.6,233.6,256,206,256z"/>
	<g class="st2">
		<g>
			<path class="st3" d="M146.7,209.8c-2.5-6.5-1.6-10.7-1.6-10.7H128h-17.1c0,0,0.8,4.3-1.6,10.7s18.7,9,18.7,9
				S149.1,216.3,146.7,209.8z"/>
			<path class="st4" d="M145.1,204.1c-2.5,11.9-17.1,11.5-17.1,11.5s-15.8,0-17.2-11.5c0,0-53,2.2-53,23.3V256H128h70.2v-28.6
				C198.2,206.2,145.1,204.1,145.1,204.1z"/>
		</g>
		<g>
			<path class="st5" d="M127.8,204.1c46.8,0,50.3-61.7,50.3-61.7c0.7-80.4,10.8-106.8-50.3-92.9s-48-0.8-52.2,55
				C74.4,159.8,81,204.1,127.8,204.1z"/>
			<path class="st6" d="M79.6,145.7c0,0-6.8-36,10.7-45.1c1.3-0.7,2.7-1.4,4-2.2c11-6.9,55.8-35.3,61-45.4c0,0-3.4,23.1-35.1,41.6
				c0,0,31.8-6.5,42.5-41.6c0,0,12.4-0.9,13.1,45.1l-1,44.6c0,0,15.7-20.6,13.9-43.3C187,76.7,200,48.3,149,30.6
				c-23.9-8.3-42.4-2.9-55.9,6.3C75,49.3,64.4,69.8,64,91.6C63.7,108.3,66.5,128.7,79.6,145.7z"/>
			<g>
				<path class="st6" d="M88.5,114.3c0,0,1-5.1,5.4-5.9c4.4-0.8,18.1-2.5,20.9-1.3C114.8,107.2,113.3,111.5,88.5,114.3z"/>
				<path class="st6" d="M168.4,113.1c0,0-1.4-5-5.8-5.5c-4.4-0.5-18.2-1.2-21,0.2C141.6,107.9,143.5,112.1,168.4,113.1z"/>
				<g>
					<path class="st7" d="M153.8,136.5c2.3,0,4.4-0.7,6.1-2h-12.2C149.4,135.8,151.5,136.5,153.8,136.5z"/>
					<path class="st8" d="M164.1,126.2c0-2.4-0.8-4.6-2.2-6.3h-16.3c-1.4,1.7-2.2,3.9-2.2,6.3c0,3.4,1.7,6.4,4.2,8.3h12.2
						C162.4,132.6,164.1,129.6,164.1,126.2z"/>
					<circle class="st9" cx="153.8" cy="124.4" r="5.5"/>
					<path class="st7" d="M153.8,115.9c-3.3,0-6.2,1.6-8.1,4h16.3C160,117.4,157.1,115.9,153.8,115.9z"/>
					<circle class="st10" cx="155.7" cy="124.1" r="1.6"/>
				</g>
				<g>
					<path class="st7" d="M101.7,137c2.3,0,4.4-0.7,6.1-2H95.6C97.3,136.3,99.4,137,101.7,137z"/>
					<path class="st8" d="M112,126.7c0-2.4-0.8-4.6-2.2-6.3H93.5c-1.4,1.7-2.2,3.9-2.2,6.3c0,3.4,1.7,6.4,4.2,8.3h12.2
						C110.3,133.1,112,130.1,112,126.7z"/>
					<circle class="st9" cx="101.7" cy="124.9" r="5.5"/>
					<path class="st7" d="M101.7,116.4c-3.3,0-6.2,1.6-8.1,4h16.3C107.9,117.9,105,116.4,101.7,116.4z"/>
					<circle class="st10" cx="103.6" cy="124.6" r="1.6"/>
				</g>
				<g>
					<path class="st11" d="M146.7,173.9c0.1-0.1,0.1-0.2,0.1-0.2c-8.6-7.3-15.3-4.2-15.3-4.2c-4.6,1.9-7.1-0.1-7.1-0.1
						c-9.8-2.3-14.6,3.8-15.2,4.6C114.3,174.7,125,175.4,146.7,173.9z"/>
					<path class="st12" d="M109.2,174C109.2,174,109.2,174,109.2,174c-0.1,0.1,3.9,8.5,18.7,8.5c13.6,0,18.1-7.4,18.7-8.6
						C125,175.4,114.3,174.7,109.2,174z"/>
				</g>
				<path class="st12" d="M131.2,152.6c-2.3,1-3.3,0.7-3.3,0.7s-0.9,0.3-3.3-0.7c-3.2-1.5-10.9-2.6-10.9-2.6
					c3.1,2.7,14.1,7.8,14.1,7.8s11-5.2,14.1-7.8C142,150,134.3,151.2,131.2,152.6z"/>
			</g>
		</g>
	</g>
</g>
<g id="Avatar_07" class="st0">
	<path class="st13" d="M206,256H50c-27.6,0-50-22.4-50-50L0,50C0,22.4,22.4,0,50,0l156,0c27.6,0,50,22.4,50,50v156
		C256,233.6,233.6,256,206,256z"/>
	<g class="st2">
		<g>
			<path class="st14" d="M106.9,200c0,0,0.1,12.8,19.5,12.8s23.2-10.7,22.7-15.5C148.6,192.6,106.9,187,106.9,200z"/>
			<path class="st15" d="M147.5,201.4c-7.1,11.5-19.5,10.8-19.5,10.8s-12.1,1.7-19.3-9.8c0,0-53.8,3.6-57.7,27.3V256h77h77v-26.3
				C201.1,206,147.5,201.4,147.5,201.4z"/>
		</g>
		<g>
			<g>
				<g>
					<path class="st5" d="M72.4,99.2c0,0-8.7-5.3-9.2,8.6s9.2,15.1,9.2,15.1S75.6,107.5,72.4,99.2z"/>
					<path class="st16" d="M68.5,113.2c0,0,0.1-7.1,2.9-8.1c2.8-1,4.1,0,4.1,0s-3.7-4.9-7.2-1.2C64.7,107.7,68.5,113.2,68.5,113.2z"
						/>
				</g>
				<g>
					<path class="st5" d="M176.6,102.4c0,0,12.5-12,13.6,5.3c-0.2,15.5-12.3,15.4-12.3,15.4S173.4,110.8,176.6,102.4z"/>
					<path class="st16" d="M184.8,113.1c0,0-0.1-7.1-2.9-8.1s-4.1,0-4.1,0s3.7-4.9,7.2-1.2C188.6,107.6,184.8,113.1,184.8,113.1z"/>
				</g>
			</g>
			<path class="st5" d="M126.5,206.4c0,0,50.8,5.2,48.5-68.7c0,0,6-58.4-7.1-78.8c-15.5-11.1-15.6-18-44.3-16.1
				c-28.7,1.9-42.5,0.7-46.3,20.6c-4.9,15.2-5.8,40.4-5,75.2C72.4,138.6,69.1,204.2,126.5,206.4z"/>
			<g>
				<g>
					<g>
						<g>
							<g>
								<path class="st8" d="M116.2,108.8c0-2-0.6-3.9-1.6-5.5h-5.9c1.5,1,2.5,2.7,2.5,4.6c0,3.1-2.5,5.6-5.6,5.6s-5.6-2.5-5.6-5.6
									c0-1.9,1-3.6,2.5-4.6h-5.1c-1,1.6-1.6,3.5-1.6,5.5c0,3,1.3,5.8,3.4,7.6h13.6C114.9,114.6,116.2,111.8,116.2,108.8z"/>
								<path class="st14" d="M112.8,116.4H99.2c1.8,1.6,4.2,2.6,6.8,2.6S111,118,112.8,116.4z"/>
								<path class="st17" d="M100,107.9c0,3.1,2.5,5.6,5.6,5.6s5.6-2.5,5.6-5.6c0-1.9-1-3.6-2.5-4.6h-6.2
									C101,104.3,100,106,100,107.9z"/>
								<path class="st14" d="M106,98.6c-3.6,0-6.8,1.9-8.6,4.7h5.1h6.2h5.9C112.8,100.5,109.6,98.6,106,98.6z"/>
							</g>
							<circle class="st18" cx="108" cy="107.6" r="1.7"/>
						</g>
						<g>
							<g>
								<path class="st8" d="M160,108.4c0-2-0.6-3.9-1.6-5.5h-5.9c1.5,1,2.5,2.7,2.5,4.6c0,3.1-2.5,5.6-5.6,5.6s-5.6-2.5-5.6-5.6
									c0-1.9,1-3.6,2.5-4.6h-5.1c-1,1.6-1.6,3.5-1.6,5.5c0,3,1.3,5.8,3.4,7.6h13.6C158.7,114.2,160,111.4,160,108.4z"/>
								<path class="st14" d="M156.6,116H143c1.8,1.6,4.2,2.6,6.8,2.6S154.8,117.6,156.6,116z"/>
								<path class="st17" d="M143.8,107.5c0,3.1,2.5,5.6,5.6,5.6s5.6-2.5,5.6-5.6c0-1.9-1-3.6-2.5-4.6h-6.2
									C144.8,103.9,143.8,105.6,143.8,107.5z"/>
								<path class="st14" d="M149.8,98.2c-3.6,0-6.8,1.9-8.6,4.7h5.1h6.2h5.9C156.6,100,153.4,98.2,149.8,98.2z"/>
							</g>
							<circle class="st18" cx="151.8" cy="107.2" r="1.7"/>
						</g>
					</g>
					<g>
						<path class="st6" d="M89,109.3c0,0,13.4-6.5,34.8-8.9c0,0-16-11.9-27.9-5.3C95.9,95.2,89.2,98.5,89,109.3z"/>
						<path class="st6" d="M165.5,107.6c0,0-13.8-5.6-35.3-6.8c0,0,15.2-12.8,27.5-7C157.7,93.9,164.6,96.8,165.5,107.6z"/>
					</g>
				</g>
				<path class="st14" d="M132.6,141c0,0-3.1,2.8-4.6,2.6c-1.5,0.3-4.6-2.6-4.6-2.6c-3.8-2.7-8.9-2.6-8.9-2.6
					c1.8,2.3,13.5,7.5,13.5,7.5s11.7-5.2,13.5-7.5C141.5,138.4,136.3,138.3,132.6,141z"/>
				<path class="st12" d="M128,176.6c0,0,14,0.2,21.8-10c0,0-23.8,2.2-41.8,0C108,166.7,108.3,174.3,128,176.6z"/>
				<path class="st6" d="M88.7,173c0,0-5.5-16.9,21.9-24.5c0,0,10.5-1.1,15.1,1.7c0,0,2.5,0.9,4.9-0.3c0,0,14.5-3.9,23.2,2.2
					c8.7,6,14.8,9.9,12.2,20.9c0,0-2-5.4-6.6-4c-4.6,1.5-5.1-2.4-5.1-2.4s-1.5-0.4-3,1.5c-1.5,2-11-2.8-11-2.8l-0.2,5.3
					c0,0.1-0.2,0.2-0.3,0.1l-3-2.1l-0.8,3c0,0.1-0.1,0.1-0.2,0.1l-8.4-7.4l-12.3,8.3c-0.1,0.1-0.2,0-0.2-0.1l-0.4-6.6l-5.6,2.4
					c-0.2,0.1-0.4,0-0.5-0.1l-1.3-1.1c0,0-0.7-0.7-1.5,0.2l-1.8,1.9c-0.2,0.2-0.4,0.1-0.5,0l-2.4-2.8l-2.3,4.5
					c-0.1,0.2-0.3,0.2-0.4,0l-1.8-3"/>
			</g>
			<path class="st6" d="M126.9,52.6c0,0,13.7-10.3,27-2.4c13.2,7.9,18.2,16.3,21.2,42.5l-0.9,42c0,0,9.1-6.9,4.1-33.4
				c0,0,15.8-65.5-34.6-66.2l10.5-8.5c0,0-8.1-5.7-12.5,6.1c0,0-16.4-22.1-38.3-9.9c0,0,19.5-6.3,25.2,7.4c0,0-13-16.4-32.3,1.7
				c0,0,6.9-0.8,11,3.5v1.3c0,0-36.4-6.9-34.8,47.3c0,0,0.5,18.1,4.1,28.1c0,0-8.8,19.4,2.5,23.4l-0.6-37.3c0,0-1.8-36.4,16.8-47.5
				S126.9,52.6,126.9,52.6z"/>
		</g>
	</g>
</g>
<g id="Avatar_06" class="st0">
	<path class="st19" d="M206,256H50c-27.6,0-50-22.4-50-50L0,50C0,22.4,22.4,0,50,0l156,0c27.6,0,50,22.4,50,50v156
		C256,233.6,233.6,256,206,256z"/>
	<g class="st2">
		<g>
			<path class="st14" d="M114.1,194.9c0,0,0.7,17.5-9,23.6c0,0,9.3,22.6,42.6,3.2c0,0-6.4-17.4-4.8-26.9L114.1,194.9z"/>
			<path class="st20" d="M142.9,202c0,27.6-14.9,25.5-14.9,25.5s-14.3,2.8-14.3-25.7c0,0-62.1-3.6-67.1,26.1v28H128h81.4v-28
				C204.4,198.3,142.9,202,142.9,202z"/>
		</g>
		<g>
			<path class="st21" d="M129.6,50.8H82.7v101.4c5.7,51.4,46.9,46.9,46.9,46.9s41.2,4.5,46.9-46.9V50.8H129.6z"/>
			<g>
				<path class="st6" d="M132.4,104.9c0,0,12.8-19.2,24.2-15.3c0,0,9.2,4.4,8.6,9.2C165.2,98.8,148.6,99.9,132.4,104.9z"/>
				<path class="st6" d="M127.7,104.9c0,0-12.8-19.2-24.2-15.3c0,0-9.2,4.4-8.6,9.2C95,98.8,111.6,99.9,127.7,104.9z"/>
				<g>
					<g>
						<path class="st22" d="M163.7,110.3C163.6,110.2,163.6,110.2,163.7,110.3c-16.2-10.4-27.7,1.9-29.8,4.5
							C138.4,112.1,148.9,107.6,163.7,110.3z"/>
						<path class="st8" d="M133.8,114.8c-0.2,0.3-0.4,0.5-0.4,0.5s-0.9,12.4,15.4,11.5c15.7-0.9,14.9-15.4,14.8-16.4
							C148.9,107.6,138.4,112.1,133.8,114.8z"/>
					</g>
					<circle class="st23" cx="143" cy="116.6" r="4.3"/>
				</g>
				<g>
					<g>
						<path class="st22" d="M93.2,109.6C93.2,109.6,93.2,109.5,93.2,109.6c16.2-10.4,27.7,1.9,29.8,4.5
							C118.4,111.5,108,107,93.2,109.6z"/>
						<path class="st8" d="M123,114.1c0.2,0.3,0.4,0.5,0.4,0.5s0.9,12.4-15.4,11.5c-15.7-0.9-14.9-15.4-14.8-16.4
							C108,107,118.4,111.5,123,114.1z"/>
					</g>
					<circle class="st23" cx="102.7" cy="115.9" r="4.3"/>
				</g>
				<path class="st24" d="M136,140.9c-2.7,1.9-4.8,3.8-6.4,3.8c-1.6,0-3.7-1.9-6.4-3.8c-2.7-1.9-8.7-2.1-8.7-2.1
					c2,1.9,15.1,8.4,15.1,8.4s13.1-6.5,15.1-8.4C144.7,138.8,138.7,139,136,140.9z"/>
				<g>
					<path class="st12" d="M112.3,166.5c1.7,1.5,7.6,6.4,14.4,6.4c8.1,0,13.5-3,15.9-6.1c0,0,0-0.1-0.1-0.3H112.3z"/>
					<path class="st14" d="M127.7,163.9c0,0-12.6-6-15.9,2.1c0,0,0.2,0.2,0.5,0.5h30.2C142,165,138.8,158.3,127.7,163.9z"/>
				</g>
				<path class="st6" d="M158.3,160.9c-3.4,4.1-5.6,2.5-8.4,1.3c-2.9-1.2-14-9.5-15.7-10.9c-1.8-1.4-2.5,0-2.5,0l-4.4,4l-4.4-4
					c0,0-0.7-1.4-2.5,0c-1.8,1.4-12.9,9.7-15.7,10.9s-5,2.8-8.4-1.3c0,0-1,4.9,6.1,7.1c0,0,2.6,0.9,6.4-0.6c3.8-1.6,13-8.5,17.6-5.2
					h0.9h0.9c4.6-3.3,13.8,3.6,17.6,5.2c3.8,1.6,6.4,0.6,6.4,0.6C159.3,165.8,158.3,160.9,158.3,160.9z"/>
				<path class="st23" d="M136.8,176.6v-3.7c0,0-4.8,1.6-8.8,1.6c-4,0-8.8-1.6-8.8-1.6v3.7c-0.6,6.8,8.8,13.6,8.8,13.6
					S137.4,183.4,136.8,176.6z"/>
			</g>
			<path class="st6" d="M172.4,69.7v59.2H183c0,0,12.2-1.9,4.2-15.8c0,0,17.7,2.8,2.7-11.4c0,0,34.9-36.9-5.7-43.6
				c0,0,17.1-17.5-6.5-24.4c0,0-7.2-3.6-12.2,11.9c0,0-19.2-38.5-72.8-12.3c0,0-21.4-3.8-21.1,16.8c0,0-20.8-2.2-9.2,13.3
				c0,0-18.1,20,4.4,42.2c0,0-8.3,21.7,13.1,23.3c0,0,9.2,0.8,9.2-12.2V90.2c0,0,26.4,1.7,19.4-27.8c0,0,37.3-10.1,55.5-0.4
				c0.7,0.4,1.4,0.7,2.1,1.1C168.1,64.1,172.4,66.6,172.4,69.7z"/>
		</g>
	</g>
</g>
<g id="Avatar_05">
	<path class="st25" d="M206,256H50c-27.6,0-50-22.4-50-50L0,50C0,22.4,22.4,0,50,0l156,0c27.6,0,50,22.4,50,50v156
		C256,233.6,233.6,256,206,256z"/>
	<g>
		<path class="st26" d="M155.7,203.1h-27h-27c0,0-45.7,5.9-46.2,28.1V256h73.2h75.8v-24.7C203.9,209.1,155.7,203.1,155.7,203.1z"/>
		<g>
			<path class="st5" d="M128.7,52.6c0,0,45.5-8.9,52.1,43.3s-10.7,86.3-29.6,94S92.2,205.3,84,166.7S76.6,49.9,128.7,52.6z"/>
			<g>
				<path class="st12" d="M108.4,166.7c0,0,29.4,1.4,42.8,0c0,0-5.7,9.6-22.5,9.5C111.8,176,108.4,166.7,108.4,166.7z"/>
				<g>
					<path class="st6" d="M124,100.3c0,0-27.2,9.8-34.7,17c0,0-1-17.2,12.7-20C115.8,94.6,124,100.3,124,100.3z"/>
					<path class="st6" d="M138.4,101.9c0,0,28.3,6,36.7,12.1c0,0-1.3-17.2-15.3-18C145.8,95.2,138.4,101.9,138.4,101.9z"/>
				</g>
				<g>
					<g>
						<path class="st8" d="M99.4,119.5c0,0.2,0,0.4,0,0.6c0,5.7,4.6,10.4,10.4,10.4c5.7,0,10.4-4.6,10.4-10.4c0-0.2,0-0.4,0-0.6
							H99.4z"/>
						<g>
							<circle class="st27" cx="109.1" cy="121.1" r="5.5"/>
							<circle class="st28" cx="112.3" cy="120.4" r="1.6"/>
						</g>
						<path class="st14" d="M109.7,109.8c-5.5,0-10,4.3-10.3,9.7H120C119.7,114.1,115.2,109.8,109.7,109.8z"/>
					</g>
					<g>
						<path class="st8" d="M143.2,118.9c0,0.2,0,0.4,0,0.6c0,5.7,4.6,10.4,10.4,10.4c5.7,0,10.4-4.6,10.4-10.4c0-0.2,0-0.4,0-0.6
							H143.2z"/>
						<g>
							<circle class="st27" cx="152.9" cy="120.5" r="5.5"/>
							<circle class="st28" cx="156.1" cy="119.8" r="1.6"/>
						</g>
						<path class="st14" d="M153.5,109.2c-5.5,0-10,4.3-10.3,9.7h20.7C163.5,113.5,159,109.2,153.5,109.2z"/>
					</g>
				</g>
				<path class="st24" d="M134.3,142.4c0,0-1.1,0.9-2,1.1c-0.9-0.2-2-1.1-2-1.1c-4.3-3.7-11.4-3.5-11.4-3.5c6.4,4,13.4,6.6,13.4,6.6
					s7-2.6,13.4-6.6C145.7,138.9,138.5,138.7,134.3,142.4z"/>
			</g>
			<path class="st6" d="M201.4,165.5c13.9,10.8,20.3-2.6,20.3-2.6c-10.1,1-22.7-33-22.4-44.1c0.3-11.1-5.7-35.4-5.7-35.4
				C181.7,21,132.3,29,132.3,29c-47.5-3.1-59.8,42.3-68.6,96S24,192.6,24,192.6c17,16.1,41.4-13.3,41.4-13.3
				c-2.7,10.1-27.1,29.2-27.1,29.2l9.4,0.4c25.3,0,33.4-32.5,33.4-32.5c1.4,6.1-8.3,26.6-8.3,26.6c10.2-0.9,12.3-8.8,12.3-8.8
				c0,5.9,12.9,34.1,47.2,34.1s42.6-39.1,42.6-39.1c7,16.3,13.2,12.8,13.2,12.8c-6.7-11.4-4.9-17.3-4.9-17.3l5.7,9.4
				c8.1,12.3,29.8-1.8,29.8-1.8c-26.1-16-23.9-39.9-23.9-39.9C194.8,158,201.4,165.5,201.4,165.5z M141.9,180.4
				c-11.7,0-13.2-6.9-13.2-6.9s-1.5,6.9-13.2,6.9c-11.7,0-10.7-10.5-10.7-10.5s-0.5-13.1,23.9-13.1s23.9,13.1,23.9,13.1
				S153.6,180.4,141.9,180.4z M166.2,154.6c0,0-6.5,14.2-11.9,0c0,0-20.9-17.3-51.1-1.3c0,0-8,16.5-10.1,2.8
				c-2.1-13.7-8-56,6.2-81.8c6.5-11.1,17.8-16.3,27.4-14.7c0,0,30.2-4.1,35.6,18.8c0,0,7.5,13.2,8.3,55.5
				C170.6,134,169.3,147.9,166.2,154.6z"/>
		</g>
	</g>
</g>
<g id="Avatar_04_1_" class="st0">
	<path class="st29" d="M206,256H50c-27.6,0-50-22.4-50-50L0,50C0,22.4,22.4,0,50,0l156,0c27.6,0,50,22.4,50,50v156
		C256,233.6,233.6,256,206,256z"/>
	<g class="st2">
		<g>
			<g>
				<path class="st14" d="M147.9,192.6l-19.9,2.6l-19.9-2.6c0,0,0.9,28.1-1.1,33.8l21,8.1l21-8.1C147,220.7,147.9,192.6,147.9,192.6
					z"/>
			</g>
			<g>
				<g>
					<path class="st30" d="M147.7,202.7c0,23.7-39.4,23.7-39.4,0c-11.9,1.6-53.9,3.7-55.2,20.4L50.5,256h77.5h77.5l-2.4-32.9
						C201.7,206.3,159.6,204.3,147.7,202.7z"/>
				</g>
				<g>
					<path class="st31" d="M101.9,203.4c0,32.6,52,33,52,0l-6.3-0.7c0,23.7-39.4,23.7-39.4,0L101.9,203.4z"/>
				</g>
			</g>
		</g>
		<g>
			<g>
				<g>
					<path class="st5" d="M182.8,114.9c0,0,12.2-3.9,9.9-19.3c0,0-0.6-10.1-12.6-6.2L182.8,114.9z"/>
					<path class="st16" d="M187.9,103.2c0,0,2.4-10-5.5-9.7V95C182.4,95,187.5,95.6,187.9,103.2z"/>
				</g>
				<g>
					<path class="st5" d="M74.7,115.2c0,0-13.3-1.7-12.3-19.4c0,0,0.2-10.1,12.3-6.7V115.2z"/>
					<path class="st16" d="M68.1,102.9c0,0-2.8-9.9,5-9.9l0.1,1.5C73.2,94.5,68.1,95.3,68.1,102.9z"/>
				</g>
			</g>
			<path class="st5" d="M128.8,199.7c0,0-48.5,6-55.6-59.9c0,0,2-77.9,3.2-81.3c1.2-3.4,27.1-30.1,47.3-22.2s48.5,1.5,48.5,1.5
				s15.1,55,11.1,97.9S167.8,198.2,128.8,199.7z"/>
			<g>
				<g>
					<polygon class="st32" points="135.7,98.5 138.7,108.6 165.1,98.5 163.1,92 					"/>
					<polygon class="st32" points="117.1,101.5 115.4,92 87.8,98.2 88.8,104.2 					"/>
				</g>
				<g>
					<g>
						<path class="st33" d="M153.2,107c-7.8-0.1-13.3,8.4-13.3,8.4s14.1-11.2,24.5,2C164.4,117.4,161,107.1,153.2,107z"/>
						<path class="st34" d="M161.1,114.1c-0.9,3-4.1,5.3-7.9,5.3c-4.5,0-8.1-3.1-8.2-6.9c-3.1,1.3-5.2,2.9-5.2,2.9
							c16.6,15.2,24.5,2,24.5,2C163.4,116.1,162.3,115,161.1,114.1z"/>
						<path class="st27" d="M153.2,119.4c3.8,0,7-2.2,7.9-5.3c-5.7-4.4-11.8-3.3-16.1-1.6C145.2,116.3,148.8,119.4,153.2,119.4z"/>
						<ellipse class="st8" cx="157.6" cy="114.2" rx="0.8" ry="0.8"/>
					</g>
					<g>
						<path class="st33" d="M104.1,106.6c7.8-0.1,13.3,8.4,13.3,8.4s-14.1-11.2-24.5,2C92.9,117,96.3,106.7,104.1,106.6z"/>
						<path class="st34" d="M96.2,113.7c0.9,3,4.1,5.3,7.9,5.3c4.5,0,8.1-3.1,8.2-6.9c3.1,1.3,5.2,2.9,5.2,2.9
							c-16.6,15.2-24.5,2-24.5,2C93.9,115.7,95,114.6,96.2,113.7z"/>
						<path class="st17" d="M104.1,119c-3.8,0-7-2.2-7.9-5.3c5.7-4.4,11.8-3.3,16.1-1.6C112.2,115.9,108.5,119,104.1,119z"/>
						<ellipse class="st8" cx="109.1" cy="113.5" rx="0.8" ry="0.8"/>
					</g>
				</g>
				<path class="st14" d="M130.3,142.7c0,0-0.6,0.8-1.4,0.8c-0.9,0-1.4-0.8-1.4-0.8c-2.5-2.6-13.4-5-13.4-5
					c4.3,3.6,14.9,8.4,14.9,8.4s10.6-4.8,14.9-8.4C143.7,137.7,132.8,140.1,130.3,142.7z"/>
				<path class="st14" d="M105.5,161.4c0,0,23.1,10.5,45.9,9.1C151.4,170.5,124.3,179.8,105.5,161.4z"/>
			</g>
			<path class="st32" d="M77.9,114.3L83.5,82c0,0,0-8.2,14.7-9.7c14.7-1.5,43.5-9.4,52.2-17.6c0,0,1.1,5.7-11,11.9
				c0,0,7.6,2.7,13.4-1.2c0,0,11.7-8.5,13.1-10.7c1.4-2.2,6.7-4,7.3,0c0.2,1.6,0.3,6.5,0.2,12c-0.1,14.6,1.5,29.3,4.7,43.6
				c0.3,1.5,0.7,2.9,0.9,3.9c0,0,12.2-49.7,12.4-55.4c0,0,5.8-28.8-6.4-30.3c-12.2-1.5-14-2.2-18.4-6.9c-4.4-4.7-19.6-22.4-67.2-4.9
				c0,0-26.2,11-30.4,30.7c-0.4,1.9-0.9,3.7-1.5,5.5C66,57.8,64.7,72.5,77.9,114.3z"/>
		</g>
	</g>
</g>
<g id="Avatar_03_1_" class="st0">
	<path class="st35" d="M206,256H50c-27.6,0-50-22.4-50-50L0,50C0,22.4,22.4,0,50,0l156,0c27.6,0,50,22.4,50,50v156
		C256,233.6,233.6,256,206,256z"/>
	<g class="st2">
		<g>
			<path class="st14" d="M147.3,195.9l-19.9,2.6l-19.9-2.6c0,0,0.9,28.1-1.1,33.8l21,8.1l21-8.1
				C146.4,224.1,147.3,195.9,147.3,195.9z"/>
			<g>
				<path class="st36" d="M147.1,206c0,23.7-39.4,23.7-39.4,0c-11.9,1.6-53.9,3.7-55.2,20.4L50,256h77.5h77.5l-2.4-29.5
					C201.2,209.7,159,207.6,147.1,206z"/>
			</g>
			<g>
				<path class="st37" d="M98.8,207c0,32.4,56.7,32.4,56.7-0.1l-8.4-0.9c0,23.7-39.4,23.7-39.4,0L98.8,207z"/>
			</g>
		</g>
		<g>
			<g>
				<g>
					<g>
						<path class="st5" d="M171.6,109.6c0,0,7.9-12.9,13.1-2.1c0,0,1.2,11.5-4.6,17.2s-9.8-0.1-9.8-0.1L171.6,109.6z"/>
						<path class="st16" d="M179.9,115.5c0,0-0.5-8.4-6.5-5c0,0,2-4.3,5.8-1.7C179.2,108.8,181.6,111,179.9,115.5z"/>
					</g>
					<g>
						<path class="st5" d="M80.8,109.5c0,0-7.9-12.9-13.1-2.1c0,0-1.2,11.5,4.6,17.2c5.8,5.7,9.8-0.1,9.8-0.1L80.8,109.5z"/>
						<path class="st16" d="M72.5,115.4c0,0,0.5-8.4,6.5-5c0,0-2-4.3-5.8-1.7C73.2,108.7,70.8,110.9,72.5,115.4z"/>
					</g>
				</g>
				<path class="st21" d="M171.1,77.4c0,0-12.7-17.7-43.7-17.7S77.8,76.8,77.8,76.8L77.4,124l0.3,29.8c7.3,50.8,49.7,49.2,49.7,49.2
					s38.9,1.9,44.1-45.8v-32.7L171.1,77.4z"/>
			</g>
			<g>
				<g>
					<path class="st6" d="M131.6,105.9l6.9,4.6c0,0,15.4-13.7,25.4-1.2C163.8,109.2,158,90,131.6,105.9z"/>
					<path class="st6" d="M119.3,105.9l-6.9,4.6c0,0-15.4-13.7-25.4-1.2C87,109.2,92.8,90,119.3,105.9z"/>
				</g>
				<g>
					<g>
						<path class="st14" d="M146.7,133.1c2.3,0,4.4-0.9,6-2.3h-12C142.3,132.2,144.4,133.1,146.7,133.1z"/>
						<path class="st8" d="M156,123.3c0-1.4-0.3-2.8-0.8-4h-17c-0.5,1.2-0.8,2.6-0.8,4c0,3,1.3,5.7,3.3,7.5h12
							C154.7,129,156,126.3,156,123.3z"/>
						<circle class="st27" cx="146.3" cy="123.2" r="5.2"/>
						<circle class="st18" cx="149.2" cy="123.2" r="1.5"/>
						<path class="st14" d="M146.7,113.5c-3.8,0-7,2.4-8.5,5.8h17C153.7,115.9,150.5,113.5,146.7,113.5z"/>
					</g>
					<g>
						<path class="st14" d="M107,133.1c2.3,0,4.4-0.9,6-2.3h-12C102.6,132.2,104.7,133.1,107,133.1z"/>
						<path class="st8" d="M116.3,123.3c0-1.4-0.3-2.8-0.8-4h-17c-0.5,1.2-0.8,2.6-0.8,4c0,3,1.3,5.7,3.3,7.5h12
							C115,129,116.3,126.3,116.3,123.3z"/>
						<circle class="st17" cx="106.5" cy="123.2" r="5.2"/>
						<circle class="st18" cx="109.4" cy="123.2" r="1.5"/>
						<path class="st14" d="M107,113.5c-3.8,0-7,2.4-8.5,5.8h17C114,115.9,110.7,113.5,107,113.5z"/>
					</g>
				</g>
				<path class="st24" d="M129.6,148.1c0,0-1,0.8-1.9,0.8c-0.2,0-0.4,0-0.6,0c-0.9,0.1-1.9-0.8-1.9-0.8c-3.8-3-10.9-4.1-10.9-4.1
					c2.8,2.3,13.1,7.1,13.1,7.1s10.2-4.8,13.1-7.1C140.5,144,133.5,145.1,129.6,148.1z"/>
				<g>
					<path class="st11" d="M147.3,171c0.1-0.1,0.1-0.1,0.2-0.2c0,0-7.9-8-15.2-4.7c0,0-1.7,1-4.8,1.5c-3.1-0.5-4.8-1.5-4.8-1.5
						c-7.3-3.4-15.2,4.7-15.2,4.7c0,0,0,0,0.1,0.1C114.5,171.1,137.1,171.7,147.3,171z"/>
					<path class="st12" d="M107.4,170.9c10,10.5,20,8.9,20,8.9s9.9,1.6,19.9-8.8C137.1,171.7,114.5,171.1,107.4,170.9z"/>
				</g>
			</g>
			<path class="st23" d="M172.8,112.4c0,0,18.7-29.7-1.7-45c0,0,18.6-4.2,11.2-22c0,0-3.7,10-19.1,8.6c0,0,24.7-13.6,2-37.8
				c0,0,4.4,18.5-17.9,23.7c0,0,6.7-28.3-9.8-33.1c0,0,4.8,16.7-26,29.8s-36.9,23.9-35.2,31c0,0-12.9,6.7,5.8,46
				c0,0,8.7-20.2,7.1-36.9c0,0,20,7.7,32.3-5c0,0,1.2,7.9,38.1,3.7c0,0,9.2,5,9.8,7.7C169.5,83.2,168,105.5,172.8,112.4z"/>
		</g>
	</g>
</g>
<g id="Avatar_02_1_" class="st0">
	<path class="st38" d="M206,256H50c-27.6,0-50-22.4-50-50L0,50C0,22.4,22.4,0,50,0l156,0c27.6,0,50,22.4,50,50v156
		C256,233.6,233.6,256,206,256z"/>
	<g class="st2">
		<g>
			<path class="st14" d="M146.9,194.9h-19.1h-19.1c0,0,0.7,27.7-1.4,32.4l20.5,2.6l20.5-2.6C146.2,222.6,146.9,194.9,146.9,194.9z"
				/>
			<path class="st39" d="M146.8,204.3c0,29.4-38.1,29.4-38.1,0c-12.3,1.7-57.1,3.8-58.5,21.1L47.6,256h80.1h80.1l-2.5-30.6
				C204,208.1,159.1,206,146.8,204.3z"/>
		</g>
		<g>
			<g>
				<g>
					<g>
						<path class="st5" d="M75.3,91.7c0,0-10.1-7.9-13.2,1.6c-3.2,9.5,4.1,20.8,12.3,21.2L75.3,91.7z"/>
						<path class="st16" d="M67.2,104.1c0,0-1.1-11.3,5.7-8.5l1.7,0.4c0,0-3.5-3.8-6.3-2.6C65.5,94.8,65.3,101.1,67.2,104.1z"/>
					</g>
					<g>
						<path class="st5" d="M178.5,91.7c0,0,10.1-7.9,13.2,1.6c3.2,9.5-4.1,20.8-12.3,21.2L178.5,91.7z"/>
						<path class="st16" d="M186.6,104.1c0,0,1.1-11.3-5.7-8.5l-1.7,0.4c0,0,3.5-3.8,6.3-2.6C188.3,94.8,188.5,101.1,186.6,104.1z"
							/>
					</g>
				</g>
				<path class="st5" d="M127.8,199.6c0,0,47.2-0.9,48.6-53.6c0,0,0.2-64.7,0-70.3s-3.9-48.2-48.6-44.2s-46.1,3.3-52.3,23.3
					c0,0-0.9,55.7-2.8,65.6s1.9,29.2,1.9,29.2S81.2,198.4,127.8,199.6z"/>
			</g>
			<g>
				<g>
					<path class="st11" d="M149.3,163c0.1-0.1,0.1-0.1,0.2-0.2c0,0-8.6-8.7-16.5-5.1c0,0-1.9,1.1-5.2,1.6c-3.4-0.6-5.2-1.6-5.2-1.6
						c-7.9-3.6-16.5,5.1-16.5,5.1c0,0,0,0,0.1,0.1C113.7,163.1,138.2,163.7,149.3,163z"/>
					<path class="st12" d="M106.1,162.8c10.8,11.3,21.6,9.6,21.6,9.6c0,0,10.8,1.7,21.5-9.5C138.2,163.7,113.7,163.1,106.1,162.8z"
						/>
				</g>
				<path class="st14" d="M129.3,136.7c0,0-0.8,0.4-1.6,0c-0.8,0.4-1.6,0-1.6,0c-4.8-2.5-13.2-3.2-13.2-3.2c5.5,4.6,14.7,8,14.7,8
					s9.2-3.4,14.7-8C142.5,133.5,134.2,134.2,129.3,136.7z"/>
				<g>
					<g>
						<path class="st14" d="M105,121.5c2.5,0,4.8-1,6.6-2.5H98.4C100.2,120.6,102.5,121.5,105,121.5z"/>
						<path class="st8" d="M115.3,110.7c0-1.6-0.3-3.1-0.9-4.5H95.7c-0.6,1.4-0.9,2.9-0.9,4.5c0,3.3,1.4,6.3,3.7,8.3h13.2
							C113.9,117,115.3,114,115.3,110.7z"/>
						<circle class="st6" cx="104.5" cy="110.6" r="5.8"/>
						<circle class="st18" cx="107" cy="110.6" r="1.7"/>
						<path class="st14" d="M105,99.9c-4.2,0-7.7,2.6-9.4,6.3h18.7C112.8,102.5,109.2,99.9,105,99.9z"/>
					</g>
					<g>
						<path class="st14" d="M149.5,121.4c2.5,0,4.8-1,6.6-2.5h-13.2C144.7,120.4,147,121.4,149.5,121.4z"/>
						<path class="st8" d="M159.8,110.6c0-1.6-0.3-3.1-0.9-4.5h-18.7c-0.6,1.4-0.9,2.9-0.9,4.5c0,3.3,1.4,6.3,3.7,8.3h13.2
							C158.3,116.9,159.8,113.9,159.8,110.6z"/>
						<circle class="st6" cx="149" cy="110.5" r="5.8"/>
						<circle class="st18" cx="152.2" cy="110.5" r="1.7"/>
						<path class="st14" d="M149.5,99.8c-4.2,0-7.7,2.6-9.4,6.3h18.7C157.2,102.4,153.6,99.8,149.5,99.8z"/>
					</g>
				</g>
				<g>
					<path class="st23" d="M119.2,90.8c0,0-27.3-12-33.3,7.1c0,0-1.1,6.7,0,8.8C85.9,106.7,99.4,96.6,119.2,90.8z"/>
					<path class="st23" d="M134.5,92.2c0,0,26.3-14.2,33.8,4.3c0,0,1.6,6.6,0.7,8.8C169,105.3,154.6,96.4,134.5,92.2z"/>
				</g>
			</g>
			<path class="st6" d="M144.1,23.5c1.3-1.3,4.1-2.5,9.8-2.7c0,0-16.1-17.5-32.6-1.6c0,0,8.4-14.7,25.3-6.7c0,0-17.3-15.4-38.4,8.6
				c0,0-3.4-10.6-13.1-6.2c0,0,2.8,4.1,10.4,8.5l1.5,2.8l-0.8,0.1c0,0-51.3-11.5-32.3,72.1c0,0-7.2,23.1,3.5,27.2
				c0,0-4.5-47.2,5.7-72.5c3.2-7.9,9.7-14.1,17.9-16.3c6.7-1.8,15.4-1.5,25.4,5.6c0,0,12.5-14.3,34.6,2.4
				c22.1,16.7,12.9,80.9,12.9,80.9s10.1-5.9,4.5-34.8C178.5,90.7,194.3,28.9,144.1,23.5z"/>
		</g>
	</g>
</g>
<g id="Avatar_01_1_" class="st0">
	<path class="st40" d="M206,256H50c-27.6,0-50-22.4-50-50L0,50C0,22.4,22.4,0,50,0l156,0c27.6,0,50,22.4,50,50v156
		C256,233.6,233.6,256,206,256z"/>
	<g class="st2">
		<g>
			<polygon class="st41" points="105.9,199.8 101,207.3 108.4,219.4 128,214.8 148.4,219.4 156.4,206.5 148.7,199.8 			"/>
			<path class="st42" d="M156.4,206.5l-8,12.9l-20.4-4.6l-19.6,4.6l-7.5-12.1c0,0-45.2,5.2-43.3,27.6V256H128h70.4v-21.1
				C200.2,212.4,156.4,206.5,156.4,206.5z"/>
		</g>
		<g>
			<g>
				<g>
					<g>
						<path class="st5" d="M179.1,95.4c0,0,13.9-5.2,11.1,10.8c-2.8,16.1-11.9,15.6-11.9,15.6L179.1,95.4z"/>
						<path class="st16" d="M185.5,109.9c0,0,2.5-10.1-4.1-9.2C181.4,100.7,184.8,103.2,185.5,109.9z"/>
					</g>
					<g>
						<path class="st5" d="M76.4,95.4c0,0-15.9-5.7-13,11.4c2.9,17.1,12.6,16.6,12.6,16.6L76.4,95.4z"/>
						<path class="st16" d="M68.4,110.7c0,0-2.7-10.7,4.3-9.8C72.7,100.9,69.1,103.6,68.4,110.7z"/>
					</g>
				</g>
				<path class="st5" d="M128,191.9c0,0,51.8-9,49.8-54.6l2-63.5c0,0-2.6-28.5-30.6-24.4s-60.5-7-67.9,11.5s-4.9,72-4.9,73.5
					S72.5,198.4,128,191.9z"/>
			</g>
			<g>
				<polygon class="st6" points="113,88.9 114.9,99.6 87.2,101.8 85.6,95.4 				"/>
				<polygon class="st6" points="143.2,89.2 141.3,99.8 169,102.1 170.5,95.6 				"/>
				<g>
					<path class="st8" d="M144.8,111.6c-0.3,2.6,3,10,12.1,9.3c9.5-0.8,10.9-10.1,11.1-12.1c0,0,0-0.1,0-0.1
						C155.4,105.4,147.8,109.4,144.8,111.6z"/>
					<circle class="st6" cx="156.6" cy="111.3" r="5.1"/>
					<path class="st22" d="M167.9,108.6c-0.2-1.9-7.4-3.5-7.4-3.5c-10.3-2-15.7,6.1-15.7,6.1c0,0.1,0,0.2-0.1,0.3
						C147.8,109.4,155.4,105.4,167.9,108.6z"/>
					<circle class="st43" cx="156.3" cy="110.8" r="1.1"/>
				</g>
				<g>
					<path class="st8" d="M109.9,111.6c0.3,2.6-3,10-12.1,9.3c-9.5-0.8-10.9-10.1-11.1-12.1c0,0,0-0.1,0-0.1
						C99.2,105.5,106.8,109.4,109.9,111.6z"/>
					<circle class="st6" cx="98" cy="111.4" r="5.1"/>
					<path class="st22" d="M86.7,108.6c0.2-1.9,7.4-3.5,7.4-3.5c10.3-2,15.7,6.1,15.7,6.1c0,0.1,0,0.2,0.1,0.3
						C106.8,109.4,99.2,105.5,86.7,108.6z"/>
					<circle class="st43" cx="98.3" cy="110.8" r="1.1"/>
				</g>
				<path class="st24" d="M132.8,139.8c-3.6,2.6-4.2,3.2-4.8,3.2c-0.6,0-1.2-0.6-4.8-3.2s-9.3-2.9-9.3-2.9c2.3,2,14.1,8,14.1,8
					s11.9-6,14.1-8C142.1,136.9,136.5,137.1,132.8,139.8z"/>
				<path class="st12" d="M104.9,167.1c0,0,36.1,1.1,44.6-0.7c0,0-7.1,9.9-21.6,9.8C113.4,176.2,104.9,167.1,104.9,167.1z"/>
				<path class="st6" d="M154.3,164.9c-3.1-7.6-16.8-11.7-20.3-13.2c-2.4-1-4.2-0.1-5.2,0.6c-0.4,0.3-1,0.3-1.4,0
					c-0.9-0.7-2.8-1.6-5.2-0.6c-3.5,1.5-17.2,5.6-20.3,13.2c-3.1,7.6-2,9,0.8,9.4c2.8,0.3,4.7-9.1,16.8-9c0,0,3.5-0.6,8-3h0.7h0.7
					c4.4,2.4,8,3,8,3c12-0.1,14,9.4,16.8,9C156.3,173.9,157.4,172.4,154.3,164.9z"/>
			</g>
			<g>
				<path class="st44" d="M159.8,56.8c0,0-1.5,13.2-31.8,15.1C97.7,70,96.2,56.8,96.2,56.8c-12.4,4.3-11.5,15.1-16,35.1
					c-4.5,20-0.2,36.2,0,40.3c0.2,4.1-0.5,32.2,14.4,43.1c15,10.9,24.5,10.5,28,3c3.1-6.5,5.3-5.4,5.3-5.4s2.2-1.1,5.3,5.4
					c3.5,7.5,13.1,7.9,28-3c15-10.9,14.3-39,14.4-43.1c0.2-4.1,4.5-20.3,0-40.3S172.2,61.1,159.8,56.8z"/>
				<path class="st6" d="M170.6,43C169.8,15.2,128,21.7,128,21.7S86.2,15.2,85.4,43c0,0-33.8-6.1-12.5,70.5c0,0-6.9,55.3,4.5,76.7
					s50.6,21.7,50.6,21.7s39.3-0.3,50.6-21.7s4.7-76.7,4.7-76.7C204.6,36.9,170.6,43,170.6,43z M175.8,132.1
					c-0.2,4.1,0.5,32.2-14.4,43.1c-15,10.9-24.5,10.5-28,3c-3.1-6.5-5.3-5.4-5.3-5.4s-2.2-1.1-5.3,5.4c-3.5,7.5-13.1,7.9-28-3
					c-15-10.9-14.3-39-14.4-43.1c-0.2-4.1-4.5-20.3,0-40.3c4.5-20,3.6-30.8,16-35.1c0,0,1.5,13.2,31.8,15.1
					c30.3-1.9,31.8-15.1,31.8-15.1c12.4,4.3,11.5,15.1,16,35.1S176,128,175.8,132.1z"/>
			</g>
		</g>
	</g>
</g>
</svg>
